<?xml version="1.0" encoding="UTF-8"?>
<svg id="Layer_1" data-name="Layer 1" xmlns="http://www.w3.org/2000/svg" viewBox="0 0 205.56 93.02">
  <defs>
    <style>
      .cls-1, .cls-2, .cls-3 {
        fill: #fff;
      }

      .cls-4, .cls-5 {
        fill: #be1e2d;
      }

      .cls-6 {
        font-family: BarlowCondensed-SemiBold, 'Barlow Condensed';
        font-size: 45.22px;
        font-weight: 600;
      }

      .cls-6, .cls-7 {
        fill: #63686c;
      }

      .cls-2, .cls-7, .cls-5 {
        stroke: #63686c;
      }

      .cls-2, .cls-7, .cls-5, .cls-3 {
        stroke-miterlimit: 10;
      }

      .cls-8 {
        letter-spacing: 0em;
      }

      .cls-9 {
        fill: #9e1c25;
      }

      .cls-10 {
        fill: #808285;
      }

      .cls-3 {
        stroke: #fff;
      }
    </style>
  </defs>
  <text class="cls-6" transform="translate(112.88 61.18)"><tspan x="0" y="0">H</tspan><tspan class="cls-8" x="21.57" y="0">S</tspan><tspan x="41.01" y="0">DC</tspan></text>
  <line class="cls-7" x1="98.34" y1="33.2" x2="58.05" y2="68.67"/>
  <ellipse class="cls-5" cx="58.07" cy="68.42" rx="9.05" ry="9.05"/>
  <ellipse class="cls-5" cx="98.34" cy="33.09" rx="5.31" ry="5.31"/>
  <line class="cls-2" x1="82.28" y1="47.34" x2="55.19" y2="20.87"/>
  <line class="cls-2" x1="16.86" y1="53.66" x2="55.23" y2="20.98"/>
  <ellipse class="cls-5" cx="15.57" cy="56.37" rx="6.07" ry="6.07"/>
  <ellipse class="cls-2" cx="55.74" cy="21.14" rx="9.05" ry="9.05"/>
  <ellipse class="cls-3" cx="55.48" cy="21.12" rx="5.36" ry="5.36"/>
  <g>
    <ellipse class="cls-10" cx="82.28" cy="47.34" rx="5.31" ry="5.31"/>
    <circle class="cls-1" cx="82.28" cy="47.34" r="3.97"/>
  </g>
  <path class="cls-1" d="m98.18,30.6c1.14,0,1.95.7,2.1,1.66.07.43-.04.83-.22,1.21-.24.5-.56.93-.92,1.34-.21.24-.43.46-.65.69-.09.09-.18.09-.27,0-.53-.52-1.02-1.07-1.4-1.71-.17-.28-.31-.58-.38-.9-.12-.57.02-1.08.37-1.54.39-.5.91-.75,1.38-.76Zm.16,2.61c.36,0,.66-.28.67-.64,0-.35-.28-.66-.62-.67-.38-.01-.68.27-.69.64,0,.37.28.66.65.67Z"/>
  <path class="cls-4" d="m55.38,15.85c2.42,0,4.14,1.49,4.46,3.53.15.92-.08,1.76-.47,2.58-.5,1.05-1.19,1.98-1.96,2.86-.44.51-.92.99-1.38,1.47-.19.2-.37.2-.57.01-1.13-1.1-2.17-2.28-2.98-3.64-.36-.6-.66-1.23-.81-1.92-.25-1.21.04-2.3.78-3.27.83-1.07,1.94-1.59,2.93-1.62Zm.34,5.54c.76.02,1.4-.6,1.42-1.36.02-.75-.59-1.4-1.32-1.42-.81-.02-1.45.57-1.47,1.35-.02.78.59,1.41,1.38,1.43Z"/>
  <path class="cls-1" d="m15.3,53.26c1.42,0,2.43.87,2.63,2.08.09.54-.05,1.04-.28,1.52-.3.62-.7,1.17-1.15,1.68-.26.3-.54.58-.81.86-.11.12-.22.12-.33,0-.66-.65-1.27-1.34-1.75-2.14-.21-.35-.39-.72-.47-1.13-.15-.71.02-1.35.46-1.92.49-.63,1.14-.94,1.72-.95Zm.2,3.26c.45.01.82-.35.83-.8,0-.44-.35-.82-.78-.84-.47-.01-.85.33-.86.79-.01.46.35.83.81.84Z"/>
  <path class="cls-1" d="m57.72,63.13c2.42,0,4.14,1.49,4.46,3.53.15.92-.08,1.76-.47,2.58-.5,1.05-1.19,1.98-1.96,2.86-.44.51-.92.99-1.38,1.47-.19.2-.37.2-.57.01-1.13-1.1-2.17-2.28-2.98-3.64-.36-.6-.66-1.23-.81-1.92-.25-1.21.04-2.3.78-3.27.83-1.07,1.94-1.59,2.93-1.62Zm.34,5.54c.76.02,1.4-.6,1.42-1.36.02-.75-.59-1.4-1.32-1.42-.81-.02-1.45.57-1.47,1.35-.02.78.59,1.41,1.38,1.43Z"/>
  <path class="cls-9" d="m84.43,26.41c.36.13,2.69-.71,2.98-.86.34-.42.18-.45.1-.76C79.71,10.08,64.33,0,46.51,0,20.82,0,0,20.82,0,46.51s20.82,46.51,46.51,46.51c19.13,0,35.55-11.55,42.69-28.05h-.02s.08-.18.08-.18c.47-.98.06-2.17-.92-2.64l-.35-.17c-.43-.21-.89-.22-1.33-.11-6.14,16.22-21.81,27.75-40.18,27.75-23.73,0-42.97-19.24-42.97-42.97S22.76,3.68,46.49,3.68c16.35,0,30.49,9.17,37.75,22.61"/>
  <path class="cls-9" d="m89.85,60.56c-.25-.53-.88-.76-1.41-.51l-4.22,2c-.27.13-.45.35-.55.6l8.22,2.95c.09-.26.09-.55-.04-.81l-2-4.23Z"/>
</svg>