<?xml version="1.0" encoding="utf-8"?>
<svg viewBox="35.218 19.821 59.842 53.702" xmlns="http://www.w3.org/2000/svg" xmlns:bx="https://boxy-svg.com">
  <defs>
    <style>
      .cls-1, .cls-2, .cls-3 {
        fill: #fff;
      }

      .cls-4, .cls-5 {
        fill: #be1e2d;
      }

      .cls-6 {
        font-family: BarlowCondensed-SemiBold, 'Barlow Condensed';
        font-size: 45.22px;
        font-weight: 600;
      }

      .cls-6, .cls-7 {
        fill: #63686c;
      }

      .cls-2, .cls-7, .cls-5 {
        stroke: #63686c;
      }

      .cls-2, .cls-7, .cls-5, .cls-3 {
        stroke-miterlimit: 10;
      }

      .cls-8 {
        letter-spacing: 0em;
      }

      .cls-9 {
        fill: #9e1c25;
      }

      .cls-10 {
        fill: #808285;
      }

      .cls-3 {
        stroke: #fff;
      }
    </style>
    <style bx:fonts="Barlow Condensed">@import url(https://fonts.googleapis.com/css2?family=Barlow+Condensed%3Aital%2Cwght%400%2C100%3B0%2C200%3B0%2C300%3B0%2C400%3B0%2C500%3B0%2C600%3B0%2C700%3B0%2C800%3B0%2C900%3B1%2C100%3B1%2C200%3B1%2C300%3B1%2C400%3B1%2C500%3B1%2C600%3B1%2C700%3B1%2C800%3B1%2C900&amp;display=swap);</style>
  </defs>
  <line class="cls-7" x1="91.994" y1="38.988" x2="68.732" y2="59.465" style="" transform="matrix(0.9999999999999999, 0, 0, 0.9999999999999999, 0, 0)"/>
  <ellipse class="cls-5" cx="68.744" cy="59.32" rx="5.223" ry="5.223" style="" transform="matrix(0.9999999999999999, 0, 0, 0.9999999999999999, 0, 0)"/>
  <ellipse class="cls-5" cx="91.994" cy="38.924" rx="3.066" ry="3.066" style="" transform="matrix(0.9999999999999999, 0, 0, 0.9999999999999999, 0, 0)"/>
  <line class="cls-2" x1="82.722" y1="47.152" x2="67.082" y2="31.869" style="" transform="matrix(0.9999999999999999, 0, 0, 0.9999999999999999, 0, 0)"/>
  <line class="cls-2" x1="44.952" y1="50.801" x2="67.105" y2="31.933" style="" transform="matrix(0.9999999999999999, 0, 0, 0.9999999999999999, 0, 0)"/>
  <ellipse class="cls-5" cx="44.207" cy="52.366" rx="3.505" ry="3.505" style="" transform="matrix(0.9999999999999999, 0, 0, 0.9999999999999999, 0, 0)"/>
  <ellipse class="cls-2" cx="67.4" cy="32.026" rx="5.223" ry="5.223" style="" transform="matrix(0.9999999999999999, 0, 0, 0.9999999999999999, 0, 0)"/>
  <ellipse class="cls-3" cx="67.249" cy="32.014" rx="3.095" ry="3.095" style="" transform="matrix(0.9999999999999999, 0, 0, 0.9999999999999999, 0, 0)"/>
  <g style="" transform="matrix(0.5773200392723083, 0, 0, 0.5773200392723083, 35.21922302246094, 19.820446014404297)">
    <ellipse class="cls-10" cx="82.28" cy="47.34" rx="5.31" ry="5.31"/>
    <circle class="cls-1" cx="82.28" cy="47.34" r="3.97"/>
  </g>
  <path class="cls-1" d="M 91.899 37.486 C 92.558 37.486 93.027 37.89 93.114 38.445 C 93.154 38.693 93.089 38.924 92.987 39.143 C 92.847 39.433 92.663 39.68 92.454 39.918 C 92.333 40.055 92.206 40.182 92.079 40.316 C 92.028 40.368 91.975 40.368 91.924 40.316 C 91.618 40.015 91.335 39.698 91.117 39.329 C 91.017 39.167 90.936 38.994 90.896 38.808 C 90.827 38.48 90.909 38.185 91.109 37.922 C 91.335 37.632 91.636 37.486 91.906 37.481 L 91.899 37.486 Z M 91.994 38.994 C 92.2 38.994 92.373 38.831 92.379 38.623 C 92.379 38.423 92.218 38.243 92.021 38.237 C 91.803 38.231 91.63 38.393 91.623 38.607 C 91.623 38.82 91.787 38.988 91.999 38.994 L 91.994 38.994 Z" style="" transform="matrix(0.9999999999999999, 0, 0, 0.9999999999999999, 0, 0)"/>
  <path class="cls-4" d="M 67.193 28.971 C 68.588 28.971 69.581 29.831 69.766 31.01 C 69.854 31.54 69.72 32.026 69.493 32.5 C 69.206 33.105 68.807 33.642 68.362 34.149 C 68.109 34.444 67.831 34.721 67.567 34.998 C 67.455 35.115 67.354 35.115 67.237 35.006 C 66.585 34.369 65.985 33.689 65.517 32.903 C 65.309 32.557 65.136 32.194 65.05 31.793 C 64.904 31.096 65.074 30.465 65.499 29.907 C 65.979 29.288 66.619 28.989 67.193 28.971 Z M 67.388 32.17 C 67.826 32.181 68.194 31.823 68.205 31.385 C 68.219 30.951 67.866 30.576 67.445 30.566 C 66.979 30.553 66.609 30.894 66.598 31.344 C 66.585 31.793 66.938 32.157 67.393 32.17 L 67.388 32.17 Z" style="" transform="matrix(0.9999999999999999, 0, 0, 0.9999999999999999, 0, 0)"/>
  <path class="cls-1" d="M 44.052 50.569 C 44.871 50.569 45.455 51.07 45.572 51.769 C 45.623 52.082 45.542 52.369 45.408 52.646 C 45.236 53.006 45.005 53.322 44.745 53.617 C 44.595 53.79 44.433 53.953 44.276 54.114 C 44.214 54.183 44.151 54.183 44.088 54.114 C 43.705 53.74 43.354 53.34 43.077 52.88 C 42.955 52.675 42.851 52.463 42.805 52.225 C 42.718 51.815 42.816 51.446 43.07 51.118 C 43.354 50.755 43.728 50.574 44.063 50.569 L 44.052 50.569 Z M 44.168 52.452 C 44.427 52.457 44.641 52.249 44.646 51.989 C 44.646 51.735 44.444 51.515 44.197 51.505 C 43.925 51.498 43.705 51.694 43.7 51.961 C 43.693 52.225 43.901 52.439 44.168 52.444 L 44.168 52.452 Z" style="" transform="matrix(0.9999999999999999, 0, 0, 0.9999999999999999, 0, 0)"/>
  <path class="cls-1" d="M 68.542 56.267 C 69.939 56.267 70.932 57.127 71.117 58.305 C 71.203 58.836 71.071 59.32 70.846 59.794 C 70.558 60.402 70.159 60.938 69.714 61.445 C 69.46 61.74 69.184 62.018 68.917 62.295 C 68.807 62.408 68.704 62.408 68.588 62.301 C 67.936 61.664 67.335 60.983 66.867 60.199 C 66.66 59.853 66.488 59.488 66.4 59.09 C 66.255 58.393 66.424 57.762 66.851 57.203 C 67.33 56.585 67.97 56.285 68.542 56.267 Z M 68.738 59.465 C 69.176 59.477 69.546 59.119 69.56 58.681 C 69.569 58.247 69.218 57.872 68.795 57.863 C 68.329 57.85 67.959 58.189 67.948 58.639 C 67.936 59.09 68.289 59.454 68.744 59.465 L 68.738 59.465 Z" style="" transform="matrix(0.9999999999999999, 0, 0, 0.9999999999999999, 0, 0)"/>
  <path class="cls-9" d="M 83.963 35.068 C 84.17 35.144 85.516 34.658 85.682 34.571 C 85.88 34.329 85.787 34.313 85.74 34.131 C 81.237 25.64 72.359 19.821 62.072 19.821 C 47.24 19.821 35.218 31.841 35.218 46.672 C 35.218 61.503 47.24 73.523 62.072 73.523 C 73.115 73.523 82.593 66.855 86.716 57.328 L 86.705 57.328 C 86.705 57.328 86.751 57.225 86.751 57.225 C 87.023 56.659 86.786 55.974 86.22 55.703 L 86.017 55.604 C 85.769 55.482 85.504 55.477 85.25 55.541 C 81.705 64.904 72.659 71.56 62.052 71.56 C 48.353 71.56 37.246 60.452 37.246 46.752 C 37.246 33.054 48.359 21.944 62.059 21.944 C 71.498 21.944 79.661 27.24 83.854 34.998" style="" transform="matrix(0.9999999999999999, 0, 0, 0.9999999999999999, 0, 0)"/>
  <path class="cls-9" d="M 87.091 54.784 C 86.948 54.477 86.584 54.344 86.276 54.489 L 83.842 55.643 C 83.686 55.717 83.581 55.845 83.524 55.991 L 88.268 57.693 C 88.322 57.542 88.322 57.376 88.246 57.225 L 87.091 54.784 Z" style="" transform="matrix(0.9999999999999999, 0, 0, 0.9999999999999999, 0, 0)"/>
</svg>