<!DOCTYPE svg PUBLIC "-//W3C//DTD SVG 1.1//EN" "http://www.w3.org/Graphics/SVG/1.1/DTD/svg11.dtd">
<!-- Uploaded to: SVG Repo, www.svgrepo.com, Transformed by: SVG Repo Mixer Tools -->
<svg xmlns="http://www.w3.org/2000/svg" xmlns:xlink="http://www.w3.org/1999/xlink" version="1.1" id="dryheat" viewBox="0 0 234.9728 235.5234" enable-background="new 0 0 234.9728 235.5234" xml:space="preserve" width="800px" height="800px" fill="#000000">
<g id="SVGRepo_bgCarrier" stroke-width="0"/>
<g id="SVGRepo_tracerCarrier" stroke-linecap="round" stroke-linejoin="round"/>
<g id="SVGRepo_iconCarrier"> <g> <path fill="#bfbfbf" d="M44.9723,68c16.543,0,30-13.457,30-30s-13.457-30-30-30s-30,13.457-30,30S28.4293,68,44.9723,68z M58.9723,16c6.6172,0,12,5.3828,12,12s-5.3828,12-12,12s-12-5.3828-12-12S52.3551,16,58.9723,16z"/> <circle fill="#bfbfbf" cx="58.9723" cy="28" r="4"/> <path fill="#bfbfbf" d="M171.9645,126.7656l-56.6555,0.6858l-22.884,27.1345c0.6938,0.3364,1.2371,0.8428,1.624,1.4636 l39.5835,14.4895l38.2188-3.3906c6.2969-10.2227,12.543-22.2734,12.9922-26.1172c-3.2996-3.2573-9.2336-10.3794-12.4846-14.345 C172.2245,126.7017,172.1007,126.7639,171.9645,126.7656z"/> <path fill="#000000" d="M234.3102,158.2734c-1.2168-1.8438-3.7012-2.3477-5.543-1.1289l-18.1387,11.9883l-17.9355-25.2734 c-0.0898-0.1265-0.2246-0.1931-0.3259-0.3059c1.2117-5.3381-0.4011-6.8286-1.3694-7.7058 c-2.4243-2.1953-8.4392-9.3533-12.2759-14.0234l19.2883-18.2861c4.3391,0.21,14.2278,1.1338,18.1262,1.5205 c0.1328,0.0117,0.2656,0.0195,0.3965,0.0195c2.0332,0,3.7734-1.543,3.9766-3.6055c0.2168-2.1992-1.3887-4.1562-3.5879-4.375 c-1.6055-0.1602-15.373-1.5078-19.8887-1.6016c-2.5469-1.2227-10.5391-9.3516-16.6348-16.4336 c-1.4414-1.668-3.9629-1.8594-5.6406-0.4219c-1.6738,1.4414-1.8633,3.9648-0.4219,5.6406 c7.3579,8.5496,12.2551,13.2815,15.5732,15.9146l-19.6084,18.5894l-54.0974,0.6553c-0.9983-0.6487-2.1646-0.7908-3.2559-0.4717 L69.9801,95.457c-1.082-0.5977-2.3691-0.6602-3.4941-0.168l-41.4492,17.7344l-17.748-6.3477 c-2.0762-0.7422-4.3691,0.3398-5.1133,2.418c-0.7441,2.082,0.3379,4.3711,2.418,5.1133l19.2266,6.875 c0.957,0.3438,1.9941,0.3086,2.9219-0.0898l41.1035-17.5859l39.1909,21.4453l-22.5486,26.7393l-30.3904-11.1494 c-1.1562-0.4258-2.4492-0.2891-3.4941,0.3594l-30.8438,19.2539L6.6207,148.6602c-1.6719-1.4453-4.1934-1.2617-5.6426,0.4023 c-1.4473,1.668-1.2676,4.1953,0.4004,5.6445l15.3711,13.3281c0.4417,0.3816,0.9563,0.6169,1.4922,0.7754l-6.1328,25.9863 c-0.5078,2.1484,0.8242,4.3047,2.9746,4.8125c0.3086,0.0703,0.6172,0.1055,0.9219,0.1055c1.8125,0,3.4551-1.2383,3.8887-3.082 l7.2461-30.7031c0.0859-0.3633,0.0493-0.7178,0.0349-1.0735l26.0042-16.2312l28.6602,10.5127 c0.4653,0.7305,1.0737,1.3574,1.9082,1.6631l42.0706,15.3984l-20.4514,14.7305c-1.2383,0.8906-1.8613,2.4102-1.6055,3.9141 c0.2539,1.5039,1.3418,2.7305,2.8047,3.168l38.9724,11.5769l-3.9998,21.1926c-0.4102,2.1719,1.0176,4.2617,3.1875,4.6719 c0.252,0.0469,0.5,0.0703,0.7461,0.0703c1.8848,0,3.5645-1.3398,3.9258-3.2578l4.1448-21.9619l41.5818,0.9346 c0.0312,0,0.0605,0,0.0918,0c2.166,0,3.9473-1.7305,3.9961-3.9102c0.0508-2.207-1.6992-4.0391-3.9082-4.0898l-46.5645-1.0469 l-32.0879-9.5312l19.9275-14.3518l37.967-3.3669c1.2441-0.1094,2.3672-0.7969,3.0312-1.8555 c5.5608-8.8364,9.1584-15.4507,11.4849-20.5178l17.2827,24.3499c0.7773,1.0938,2.0117,1.6836,3.2656,1.6836 c0.7578,0,1.5234-0.2148,2.2012-0.6641l21.3652-14.1211C235.0211,162.5977,235.527,160.1172,234.3102,158.2734z M171.8512,167.1484 l-38.2188,3.3906l-39.5835-14.4895c-0.387-0.6208-0.9302-1.1272-1.624-1.4636l22.884-27.1345l56.6555-0.6858 c0.1362-0.0017,0.26-0.064,0.3943-0.0793c3.251,3.9656,9.1851,11.0876,12.4846,14.345 C184.3941,144.875,178.1481,156.9258,171.8512,167.1484z"/> <path fill="#000000" d="M44.9723,76c20.9531,0,38-17.0469,38-38s-17.0469-38-38-38s-38,17.0469-38,38S24.0191,76,44.9723,76z M44.9723,8c16.543,0,30,13.457,30,30s-13.457,30-30,30s-30-13.457-30-30S28.4293,8,44.9723,8z"/> <path fill="#000000" d="M58.9723,40c6.6172,0,12-5.3828,12-12s-5.3828-12-12-12s-12,5.3828-12,12S52.3551,40,58.9723,40z M58.9723,24c2.2051,0,4,1.793,4,4s-1.7949,4-4,4s-4-1.793-4-4S56.7672,24,58.9723,24z"/> </g> <path fill="#bfbfbf" d="M195.3577,42.8317c-1.0239,0-2.0474-0.3906-2.8286-1.1719c-1.562-1.5615-1.562-4.0947,0-5.6562 l14.1421-14.1416c1.5635-1.5625,4.0957-1.5625,5.6572,0c1.562,1.5615,1.562,4.0947,0,5.6562l-14.1421,14.1416 C197.405,42.441,196.3811,42.8317,195.3577,42.8317z"/> <path fill="#bfbfbf" d="M209.4998,42.8326c-1.0239,0-2.0474-0.3906-2.8286-1.1719l-14.1421-14.1426 c-1.562-1.5615-1.562-4.0947,0-5.6562c1.5635-1.5625,4.0957-1.5625,5.6572,0l14.1421,14.1426c1.562,1.5615,1.562,4.0947,0,5.6562 C211.5471,42.442,210.5232,42.8326,209.4998,42.8326z"/> <path fill="#bfbfbf" d="M53.3577,202.8317c-7.7197,0-14-6.2803-14-14s6.2803-14,14-14s14,6.2803,14,14 S61.0774,202.8317,53.3577,202.8317z M53.3577,182.8317c-3.3086,0-6,2.6914-6,6s2.6914,6,6,6s6-2.6914,6-6 S56.6663,182.8317,53.3577,182.8317z"/> <path fill="#bfbfbf" d="M126.6711,81.4596L126.6711,81.4596c-1.061,0-2.0786-0.4219-2.8286-1.1719l-11.3135-11.3145 c-1.562-1.5615-1.562-4.0947,0-5.6562l11.3135-11.3135c1.5625-1.5625,4.0952-1.5625,5.6567,0l11.314,11.3135 c0.7505,0.75,1.1719,1.7676,1.1719,2.8281s-0.4214,2.0781-1.1714,2.8281l-11.314,11.3145 C128.7498,81.0377,127.7322,81.4596,126.6711,81.4596z M121.0144,66.1451l5.6567,5.6572l5.6572-5.6572l-5.6572-5.6562 L121.0144,66.1451z"/> </g>
</svg>